<svg xmlns="http://www.w3.org/2000/svg" version="1.1" xmlns:xlink="http://www.w3.org/1999/xlink" xmlns:svgjs="http://svgjs.com/svgjs" width="1000" height="1000"><rect width="1000" height="1000" rx="500" ry="500" fill="#ffffff"></rect><g transform="matrix(3.3333333333333335,0,0,3.3333333333333335,0,0.000002225240052666777)"><svg xmlns="http://www.w3.org/2000/svg" version="1.1" xmlns:xlink="http://www.w3.org/1999/xlink" xmlns:svgjs="http://svgjs.com/svgjs" width="300" height="300"><svg width="300" height="300" viewBox="0 0 300 300" fill="none" xmlns="http://www.w3.org/2000/svg">
<path d="M126.514 164.839C123.398 167.175 117.323 169.824 112.337 171.693C112.337 171.382 112.337 171.07 112.493 170.914C113.116 165.929 112.181 161.411 109.221 157.361C107.508 155.179 105.482 153.31 103.301 151.596C99.2507 148.48 94.577 146.299 89.9032 144.274C84.6063 142.093 79.3094 139.912 74.1683 137.887C71.8314 136.796 69.4946 135.706 67.4693 134.303C66.0671 133.213 64.9766 131.811 64.5092 129.941C64.1977 128.539 64.3534 127.137 64.665 125.735C65.2882 122.931 66.6903 120.438 68.2482 117.945C71.2083 113.272 74.9473 108.909 78.6863 104.859C86.0085 97.0692 93.9538 90.2144 102.99 84.4501C106.885 82.1133 110.779 80.088 115.141 78.8416C117.323 78.2185 119.504 77.7511 121.685 77.9069C123.243 78.0627 124.177 78.6858 124.645 80.088C125.112 81.1785 125.268 82.4248 125.268 83.6712C125.112 86.4754 124.333 88.9681 123.398 91.4607C121.996 95.1997 120.127 98.7829 117.946 102.21C113.739 109.065 109.221 115.92 104.859 122.775C103.613 124.644 102.211 126.514 100.809 128.228V128.851C100.964 129.006 101.276 129.162 101.588 129.318C102.834 129.63 103.769 129.63 104.548 128.539C105.638 127.137 106.885 125.891 107.819 124.333C111.87 118.101 115.92 111.869 119.815 105.638C122.775 101.12 125.268 96.4461 127.137 91.4607C128.228 88.8123 129.007 86.1638 129.007 83.3596C128.851 80.8669 127.916 78.8416 125.891 77.2837C123.866 75.7258 121.373 75.1026 118.88 74.9468C116.076 74.7911 113.428 75.2584 110.779 76.0374C105.794 77.4395 101.12 79.7764 96.6023 82.4248C88.6569 86.9428 81.4905 92.7071 74.7915 99.0945C70.1177 103.612 65.5998 108.442 61.8608 113.895C60.1471 116.543 58.5891 119.347 57.6544 122.463C56.5639 126.202 57.3428 129.785 59.8355 132.901C61.0818 134.303 62.3281 135.55 63.886 136.64C67.1577 138.977 70.7409 140.535 74.4799 142.093C78.9978 143.962 83.5158 145.676 88.0337 147.701C91.7727 149.259 95.3559 151.129 98.4718 153.777C102.211 156.893 104.236 160.944 104.392 165.773C104.392 168.889 103.924 171.849 103.146 174.809C102.99 174.965 102.678 175.121 102.522 175.277L92.7075 178.081C84.9179 180.573 77.4399 183.689 70.4293 188.051C65.2882 191.323 60.6145 195.218 56.8755 200.047C54.227 203.475 52.2017 207.214 51.7343 211.732C51.4228 216.25 52.9807 220.768 57.8102 223.416C60.7702 224.974 64.1977 225.286 67.4693 224.974C71.0525 224.662 74.4799 223.416 77.5957 221.858C82.581 219.054 86.7874 215.315 90.6822 211.109C95.8233 205.344 100.185 198.957 103.924 192.258C106.885 187.117 109.533 181.82 111.247 176.211L111.714 174.653C120.594 171.226 126.203 168.266 127.293 166.708C128.695 164.839 126.514 164.839 126.514 164.839ZM100.964 180.729C96.6023 191.323 90.838 201.138 83.5158 209.862C80.5558 213.29 77.4399 216.406 73.5451 218.898C71.5199 220.3 69.183 221.391 66.6903 222.17C61.8608 223.26 57.8102 220.612 56.7197 216.094C55.7849 212.822 56.4081 209.706 57.8102 206.746C59.5239 203.007 62.0166 199.892 64.9766 197.087C69.9619 192.258 75.882 188.519 82.1137 185.403C88.0337 182.599 94.2654 180.418 100.653 178.548C100.964 178.548 101.432 178.392 102.055 178.237C101.588 179.171 101.276 179.95 100.964 180.729Z" fill="#020617"></path>
<path d="M171.694 141.314C171.226 140.536 170.447 140.224 169.669 140.068C168.89 139.912 168.111 139.912 167.332 139.912H155.492C149.883 140.068 144.275 140.38 138.666 140.536H138.51C139.133 137.887 139.912 135.394 140.536 132.746C140.847 132.123 140.38 130.876 138.043 130.565C136.173 130.253 135.706 131.032 135.55 131.344C135.55 131.5 135.394 131.5 135.394 131.655C134.46 134.615 133.369 137.731 132.434 140.847C130.876 140.847 129.474 140.847 128.072 141.003C123.866 141.47 119.659 141.782 115.453 142.405C110.624 143.184 105.794 144.119 100.965 144.898C100.341 145.053 100.03 145.521 100.341 145.988C100.497 146.456 100.809 146.767 101.276 146.923C102.211 147.858 103.613 147.546 104.859 147.39C110 146.611 115.142 145.677 120.283 145.053C123.866 144.586 127.293 144.275 130.876 143.963H131.5C131.344 144.275 131.188 144.43 131.188 144.742C128.851 151.752 127.137 158.763 126.203 165.93V166.085C126.203 166.085 125.424 171.382 125.268 174.031C125.268 176.368 125.424 181.353 128.54 183.067C128.695 183.067 128.851 183.222 128.851 183.222C129.319 183.378 129.63 183.534 130.098 183.534H130.253C130.409 183.534 130.721 183.534 130.876 183.534H131.5C132.279 183.534 133.058 183.222 133.681 182.911L135.083 181.976L136.173 181.041C137.576 179.639 138.822 177.925 140.068 176.368C141.159 174.81 142.093 173.096 143.028 171.538C143.807 170.136 145.054 168.578 145.209 167.02C145.209 166.397 145.054 165.93 144.742 165.618C143.496 164.06 142.561 165.306 142.561 165.306L141.315 167.799C139.757 170.603 138.354 173.408 136.329 175.9C136.173 176.056 135.862 176.523 135.394 176.991C134.927 177.458 134.148 178.237 133.213 179.016C131.344 180.262 131.032 179.016 131.032 178.081V176.056C131.188 175.277 131.188 174.498 131.188 173.719C132.123 165.93 133.681 158.14 135.706 150.506C136.329 148.169 136.952 145.832 137.576 143.496H138.51C142.405 143.184 146.3 143.028 150.195 142.872C156.894 142.561 163.593 142.249 170.292 142.405C170.448 142.405 170.759 142.561 170.915 142.405C171.694 142.405 172.005 141.938 171.694 141.314Z" fill="#020617"></path>
<path d="M163.904 165.462C163.748 165.462 163.748 165.306 163.748 165.306C163.748 165.306 163.748 165.306 163.593 165.306V165.15C163.125 164.839 162.502 164.839 162.502 164.839C161.879 165.929 160.944 167.331 160.165 168.734C159.854 169.045 156.115 174.809 153.31 177.458C153.155 177.614 152.843 177.925 152.531 178.081C152.687 177.302 152.687 176.523 152.843 175.744C153.622 172.94 154.401 169.98 155.024 167.02L155.492 165.15C155.492 164.06 155.18 163.437 154.245 162.969C154.089 162.969 153.778 162.813 153.466 162.813C153.155 162.813 152.999 162.658 152.843 162.346C152.531 161.567 151.908 161.256 151.285 160.944C149.571 160.009 147.858 160.165 146.144 161.1C145.832 161.411 145.365 161.567 145.053 161.879C141.626 164.683 139.912 169.824 139.757 169.98C139.445 171.382 139.133 172.784 139.133 174.342C139.289 175.277 139.601 176.056 140.224 176.679C141.314 177.614 142.561 177.925 143.807 177.769C144.898 177.769 145.832 177.146 146.611 176.212C147.235 175.433 147.858 174.342 148.481 173.407L148.948 172.94L148.637 174.965C148.481 176.056 148.481 177.302 148.637 178.548C148.637 179.172 148.792 179.795 149.26 180.262C150.039 181.197 151.129 181.664 152.531 181.353C153.622 181.041 154.713 180.262 155.647 179.483C157.049 178.081 158.296 176.679 159.386 175.121C160.477 173.719 161.412 172.317 162.346 170.915C162.969 169.668 164.216 168.11 164.216 166.708C164.216 166.241 164.216 165.773 163.904 165.462ZM150.974 164.527C149.883 166.241 148.948 168.11 147.858 169.824C146.923 171.382 145.832 173.096 144.43 174.342C144.119 174.498 143.963 174.654 143.807 174.809C143.651 174.809 143.651 174.809 143.34 174.965C143.496 174.342 143.496 173.875 143.496 173.251C144.275 170.136 145.521 167.176 147.39 164.683C148.014 163.904 148.793 163.125 149.727 162.658C150.195 163.125 150.818 163.437 151.285 163.904C151.129 164.06 151.129 164.216 150.974 164.527Z" fill="#020617"></path>
<path d="M189.766 164.995C189.766 164.839 189.61 164.839 189.454 164.839C188.364 164.683 188.052 165.306 188.052 165.306L172.317 185.403C172.629 184.469 173.096 183.534 173.563 182.443C174.498 180.107 175.744 177.614 176.212 175.121C177.302 169.98 175.277 167.955 171.694 166.864C170.759 166.708 169.824 166.397 168.734 166.241C168.111 165.929 167.176 165.774 166.708 165.151L167.176 163.904C169.513 158.452 171.226 153.155 172.317 147.546C172.784 145.365 173.252 143.184 173.096 141.159C172.784 138.354 171.382 137.264 168.578 137.575C167.643 137.731 166.708 138.199 166.085 138.822C164.527 140.068 163.437 141.626 162.502 143.34C159.542 148.637 158.452 153.934 158.763 159.542C158.763 161.412 159.23 163.281 160.321 164.839C161.879 167.176 164.839 168.266 166.241 168.578C167.02 168.89 167.955 169.045 168.89 169.201C169.98 169.513 170.447 170.136 170.759 171.226C171.071 172.629 171.071 174.031 170.603 175.433C170.292 176.368 169.98 177.458 169.513 178.549C169.513 178.704 167.955 181.976 167.176 185.248V185.559C166.708 187.896 166.553 190.077 167.799 190.856C169.98 191.947 171.85 190.077 173.096 188.675L173.719 188.052L188.519 168.89L190.233 166.397C190.233 166.397 190.7 165.462 189.766 164.995ZM164.995 159.386C164.995 159.698 164.683 160.009 164.527 160.477C163.281 155.959 165.462 145.988 169.201 141.003C169.201 141.626 169.357 142.093 169.357 142.561C169.201 145.988 168.266 149.26 167.332 152.687C166.708 154.868 165.774 157.049 164.995 159.386Z" fill="#020617"></path>
<path d="M233.232 141.314C232.764 140.536 231.985 140.224 231.206 140.068C230.427 139.912 229.648 139.912 228.869 139.912H217.029C211.421 140.068 205.812 140.38 200.204 140.536H200.048C200.671 137.887 201.45 135.394 202.073 132.746C202.385 132.123 201.917 130.876 199.581 130.565C197.711 130.253 197.244 131.032 197.088 131.344C197.088 131.5 196.932 131.5 196.932 131.655C195.997 134.615 194.907 137.731 193.972 140.847C192.414 140.847 191.012 140.847 189.61 141.003C185.404 141.47 181.197 141.782 176.991 142.405C172.161 143.184 167.332 144.119 162.502 144.898C161.879 145.053 161.567 145.521 161.879 145.988C162.035 146.456 162.346 146.767 162.814 146.923C163.749 147.858 165.151 147.546 166.397 147.39C171.538 146.611 176.679 145.677 181.82 145.053C185.404 144.586 188.831 144.275 192.414 143.963H193.037C192.882 144.275 192.726 144.43 192.726 144.742C190.389 151.752 188.675 158.763 187.74 165.93V166.085C187.74 166.085 186.962 171.382 186.806 174.031C186.806 176.368 186.961 181.353 190.077 183.067C190.233 183.067 190.389 183.222 190.389 183.222C190.856 183.378 191.168 183.534 191.635 183.534H191.791C191.947 183.534 192.258 183.534 192.414 183.534H193.037C193.816 183.534 194.595 183.222 195.218 182.911L196.621 181.976L197.711 181.041C199.113 179.639 200.36 177.925 201.606 176.368C202.696 174.81 203.631 173.096 204.566 171.538C205.345 170.136 206.591 168.578 206.747 167.02C206.747 166.397 206.591 165.93 206.28 165.618C205.033 164.06 204.099 165.306 204.099 165.306L202.852 167.799C201.294 170.603 199.892 173.408 197.867 175.9C197.711 176.056 197.4 176.523 196.932 176.991C196.465 177.458 195.686 178.237 194.751 179.016C192.882 180.262 192.57 179.016 192.57 178.081V176.056C192.726 175.277 192.726 174.498 192.726 173.719C193.661 165.93 195.218 158.14 197.244 150.506C197.867 148.169 198.49 145.832 199.113 143.496H200.048C203.943 143.184 207.838 143.028 211.732 142.872C218.431 142.561 225.13 142.249 231.829 142.405C231.985 142.405 232.297 142.561 232.453 142.405C233.232 142.405 233.543 141.938 233.232 141.314Z" fill="#020617"></path>
<path d="M222.17 165.462C221.236 164.216 220.457 165.15 220.457 165.15L219.054 167.332L218.587 168.111C218.12 168.889 208.461 182.911 206.28 178.393C206.124 178.081 206.124 177.77 205.968 177.458C205.656 175.744 205.968 173.875 206.435 172.161C207.37 171.694 208.305 171.382 209.24 170.759C211.732 169.045 213.134 166.553 214.069 163.593C214.225 162.658 214.381 160.944 212.355 160.321C211.888 160.165 211.265 160.165 210.797 160.321C207.993 160.633 205.812 162.035 204.098 164.683C202.385 167.176 201.45 169.824 200.983 172.784C200.983 173.719 200.671 176.991 201.762 179.328C202.852 181.041 204.566 181.82 206.28 181.82H206.435C206.435 181.976 206.435 181.976 206.435 181.976L207.058 181.82C207.993 181.82 208.928 181.509 209.707 181.041H209.863C213.134 179.328 215.939 175.9 215.939 175.9C216.094 175.9 216.094 175.744 216.25 175.589L216.406 175.433C216.562 175.121 216.718 174.965 216.873 174.81C217.341 174.342 217.652 174.031 217.964 173.563C218.587 172.784 219.21 172.005 219.833 171.071L221.235 169.045C221.547 168.578 221.859 167.955 222.17 167.332C222.326 166.708 222.482 166.085 222.17 165.462ZM210.33 164.06C210.33 165.929 208.928 168.266 207.37 169.357C207.682 167.799 209.24 164.995 210.33 164.06Z" fill="#020617"></path>
<path d="M247.72 164.995C247.72 164.839 247.564 164.839 247.408 164.839C246.318 164.683 246.006 165.306 246.006 165.306L230.271 185.403C230.583 184.469 231.05 183.534 231.518 182.443C232.453 180.107 233.699 177.614 234.166 175.121C235.257 169.98 233.231 167.955 229.648 166.864C228.714 166.708 227.779 166.397 226.688 166.241C226.065 165.929 225.13 165.774 224.663 165.151L225.13 163.904C227.467 158.452 229.181 153.155 230.271 147.546C230.739 145.365 231.206 143.184 231.05 141.159C230.739 138.354 229.337 137.264 226.532 137.575C225.598 137.731 224.663 138.199 224.04 138.822C222.482 140.068 221.391 141.626 220.457 143.34C217.497 148.637 216.406 153.934 216.718 159.542C216.718 161.412 217.185 163.281 218.275 164.839C219.833 167.176 222.793 168.266 224.196 168.578C224.974 168.89 225.909 169.045 226.844 169.201C227.935 169.513 228.402 170.136 228.714 171.226C229.025 172.629 229.025 174.031 228.558 175.433C228.246 176.368 227.935 177.458 227.467 178.549C227.467 178.704 225.909 181.976 225.13 185.248V185.559C224.663 187.896 224.507 190.077 225.753 190.856C227.935 191.947 229.804 190.077 231.05 188.675L231.674 188.052L246.474 168.89L248.187 166.397C248.187 166.397 248.655 165.462 247.72 164.995ZM222.949 159.386C222.949 159.698 222.638 160.009 222.482 160.477C221.236 155.959 223.417 145.988 227.156 141.003C227.156 141.626 227.311 142.093 227.311 142.561C227.156 145.988 226.221 149.26 225.286 152.687C224.663 154.868 223.728 157.049 222.949 159.386Z" fill="#020617"></path>
<path fill-rule="evenodd" clip-rule="evenodd" d="M150 0C129.659 0 110.196 3.93029 91.6108 11.7909C73.6652 19.3814 57.773 30.0958 43.9345 43.934C30.0967 57.7711 19.3822 73.6633 11.7909 91.6108C3.93032 110.195 0 129.659 0 150C0 170.343 3.93034 189.806 11.791 208.39C19.3829 226.338 30.0974 242.23 43.9345 256.066C57.7718 269.903 73.6639 280.618 91.6108 288.209C110.194 296.07 129.657 300 150 300C170.342 300 189.805 296.07 208.39 288.209C226.336 280.619 242.228 269.905 256.066 256.066C269.904 242.229 280.618 226.337 288.21 208.39C296.07 189.806 300 170.343 300 150C300 129.66 296.07 110.197 288.21 91.6114C280.62 73.6655 269.905 57.773 256.066 43.934C242.229 30.0961 226.336 19.3817 208.39 11.7909C189.805 3.9303 170.342 0 150 0ZM45.5287 45.5285C59.16 31.8978 74.8135 21.3442 92.4893 13.8678C110.793 6.12594 129.964 2.25503 150 2.25503C170.036 2.25503 189.207 6.12594 207.511 13.8678C225.188 21.3444 240.841 31.898 254.472 45.5285C268.104 59.1612 278.658 74.815 286.132 92.4899C293.874 110.795 297.745 129.965 297.745 150C297.745 170.038 293.874 189.208 286.132 207.511C278.655 225.189 268.102 240.842 254.472 254.472C240.841 268.103 225.187 278.656 207.511 286.132C189.206 293.874 170.036 297.745 150 297.745C129.961 297.745 110.791 293.874 92.4893 286.132C74.8118 278.654 59.1583 268.101 45.5287 254.472C31.8991 240.842 21.3455 225.189 13.8679 207.511C6.12598 189.208 2.255 170.038 2.255 150C2.255 129.963 6.12596 110.793 13.8679 92.4892C21.3448 74.8118 31.8984 59.1583 45.5287 45.5285Z" fill="#020617"></path>
<path fill-rule="evenodd" clip-rule="evenodd" d="M47.8363 47.8358C34.506 61.1657 24.185 76.4739 16.8734 93.7605C9.30333 111.658 5.51831 130.404 5.51831 150C5.51831 169.597 9.30333 188.343 16.8734 206.24C24.1858 223.527 34.5068 238.835 47.8363 252.164C61.166 265.494 76.4742 275.815 93.7608 283.127C111.656 290.697 130.403 294.482 150 294.482C169.595 294.482 188.342 290.697 206.24 283.127C223.526 275.816 238.834 265.495 252.164 252.164C265.495 238.834 275.816 223.526 283.127 206.24C290.697 188.343 294.482 169.597 294.482 150C294.482 130.406 290.697 111.659 283.127 93.7605C275.817 76.476 265.496 61.1678 252.164 47.8358C238.834 34.5053 223.526 24.1844 206.24 16.873C188.342 9.30306 169.596 5.51807 150 5.51807C130.405 5.51807 111.658 9.30306 93.7608 16.873C76.4754 24.1842 61.1673 34.5051 47.8363 47.8358ZM9.3519 150C9.3519 130.922 13.0359 112.673 20.404 95.2534C27.5215 78.4265 37.5691 63.5242 50.5468 50.5466C63.5249 37.5684 78.4272 27.5208 95.2536 20.4038C112.674 13.0357 130.923 9.35162 150 9.35162C169.078 9.35162 187.326 13.0357 204.747 20.4038C221.574 27.521 236.476 37.5686 249.454 50.5466C262.433 63.5267 272.481 78.429 279.596 95.2534C286.965 112.676 290.649 130.924 290.649 150C290.649 169.079 286.965 187.327 279.597 204.747C272.479 221.574 262.431 236.477 249.454 249.453C236.475 262.432 221.573 272.48 204.747 279.597C187.326 286.965 169.077 290.649 150 290.649C130.921 290.649 112.672 286.965 95.2543 279.597C78.4261 272.478 63.5236 262.43 50.5468 249.453C37.5698 236.477 27.5222 221.574 20.404 204.747C13.0359 187.327 9.3519 169.079 9.3519 150Z" fill="#020617"></path>
</svg></svg></g></svg>