<svg width="500" height="500" viewBox="0 0 500 500" fill="none" xmlns="http://www.w3.org/2000/svg">
  <path
    d="M220.251 268.796C216.305 271.756 208.609 275.11 202.294 277.478C202.294 277.084 202.294 276.689 202.491 276.492C203.28 270.177 202.096 264.454 198.347 259.324C196.176 256.561 193.611 254.193 190.848 252.022C185.718 248.075 179.798 245.313 173.877 242.747C167.168 239.985 160.459 237.222 153.947 234.657C150.986 233.275 148.026 231.894 145.461 230.118C143.685 228.736 142.304 226.96 141.712 224.592C141.317 222.816 141.514 221.04 141.909 219.264C142.698 215.712 144.474 212.555 146.448 209.398C150.197 203.477 154.933 197.952 159.669 192.821C168.944 182.955 179.008 174.272 190.454 166.97C195.387 164.01 200.32 161.445 205.846 159.866C208.609 159.077 211.371 158.485 214.134 158.682C216.107 158.88 217.291 159.669 217.883 161.445C218.475 162.826 218.673 164.405 218.673 165.984C218.475 169.536 217.489 172.693 216.305 175.85C214.529 180.586 212.161 185.125 209.398 189.467C204.07 198.149 198.347 206.832 192.822 215.515C191.243 217.883 189.467 220.251 187.691 222.422V223.211C187.888 223.408 188.283 223.606 188.678 223.803C190.256 224.198 191.44 224.198 192.427 222.816C193.808 221.04 195.387 219.462 196.571 217.488C201.702 209.595 206.833 201.701 211.766 193.808C215.515 188.085 218.673 182.165 221.041 175.85C222.422 172.496 223.409 169.141 223.409 165.589C223.211 162.432 222.027 159.866 219.462 157.893C216.897 155.919 213.739 155.13 210.582 154.933C207.03 154.735 203.675 155.327 200.32 156.314C194.006 158.09 188.086 161.05 182.363 164.405C172.299 170.128 163.221 177.429 154.736 185.52C148.816 191.243 143.093 197.36 138.357 204.267C136.186 207.621 134.213 211.174 133.029 215.12C131.648 219.856 132.634 224.395 135.792 228.342C137.37 230.118 138.949 231.696 140.922 233.078C145.066 236.038 149.605 238.011 154.341 239.985C160.064 242.353 165.787 244.523 171.509 247.089C176.245 249.062 180.784 251.43 184.731 254.785C189.467 258.731 192.032 263.862 192.23 269.98C192.23 273.926 191.638 277.676 190.651 281.425C190.454 281.622 190.059 281.82 189.862 282.017L177.429 285.569C167.563 288.727 158.091 292.673 149.21 298.199C142.698 302.343 136.778 307.276 132.042 313.394C128.688 317.735 126.122 322.471 125.53 328.194C125.135 333.916 127.109 339.639 133.226 342.994C136.976 344.967 141.317 345.362 145.461 344.967C150 344.573 154.341 342.994 158.288 341.021C164.603 337.469 169.931 332.732 174.864 327.404C181.376 320.103 186.902 312.012 191.638 303.527C195.387 297.015 198.742 290.305 200.912 283.201L201.504 281.228C212.753 276.886 219.857 273.137 221.238 271.164C223.014 268.796 220.251 268.796 220.251 268.796ZM187.888 288.924C182.363 302.343 175.061 314.775 165.787 325.826C162.037 330.167 158.091 334.114 153.157 337.271C150.592 339.047 147.632 340.429 144.474 341.415C138.357 342.797 133.226 339.442 131.845 333.719C130.661 329.575 131.45 325.628 133.226 321.879C135.397 317.143 138.554 313.196 142.304 309.644C148.618 303.527 156.117 298.791 164.011 294.844C171.509 291.292 179.403 288.529 187.494 286.161C187.888 286.161 188.48 285.964 189.27 285.767C188.678 286.951 188.283 287.937 187.888 288.924Z"
    fill="#f0f0f0" />
  <path
    d="M277.479 238.998C276.887 238.011 275.9 237.617 274.913 237.419C273.927 237.222 272.94 237.222 271.953 237.222H256.956C249.852 237.419 242.748 237.814 235.644 238.011H235.446C236.236 234.657 237.222 231.499 238.012 228.145C238.406 227.355 237.814 225.777 234.854 225.382C232.486 224.987 231.894 225.974 231.697 226.369C231.697 226.566 231.5 226.566 231.5 226.763C230.316 230.513 228.934 234.459 227.75 238.406C225.777 238.406 224.001 238.406 222.225 238.603C216.897 239.195 211.569 239.59 206.241 240.379C200.123 241.366 194.006 242.55 187.888 243.537C187.099 243.734 186.704 244.326 187.099 244.918C187.296 245.51 187.691 245.905 188.283 246.102C189.467 247.286 191.243 246.892 192.822 246.694C199.334 245.708 205.846 244.524 212.358 243.734C216.897 243.142 221.238 242.748 225.777 242.353H226.566C226.369 242.748 226.172 242.945 226.172 243.34C223.212 252.22 221.041 261.1 219.857 270.177V270.375C219.857 270.375 218.87 277.084 218.673 280.439C218.673 283.399 218.87 289.713 222.817 291.884C223.014 291.884 223.212 292.081 223.212 292.081C223.804 292.279 224.198 292.476 224.79 292.476H224.988C225.185 292.476 225.58 292.476 225.777 292.476H226.566C227.553 292.476 228.54 292.081 229.329 291.687L231.105 290.503L232.486 289.319C234.262 287.543 235.841 285.372 237.42 283.399C238.801 281.425 239.985 279.255 241.169 277.281C242.156 275.505 243.734 273.532 243.932 271.559C243.932 270.769 243.734 270.177 243.34 269.783C241.761 267.809 240.577 269.388 240.577 269.388L238.998 272.545C237.025 276.097 235.249 279.649 232.684 282.807C232.486 283.004 232.092 283.596 231.5 284.188C230.908 284.78 229.921 285.767 228.737 286.753C226.369 288.332 225.974 286.753 225.974 285.569V283.004C226.172 282.017 226.172 281.031 226.172 280.044C227.356 270.177 229.329 260.31 231.894 250.641C232.684 247.681 233.473 244.721 234.262 241.761H235.446C240.38 241.366 245.313 241.169 250.247 240.971C258.732 240.577 267.217 240.182 275.703 240.379C275.9 240.379 276.295 240.577 276.492 240.379C277.479 240.379 277.874 239.787 277.479 238.998Z"
    fill="#f0f0f0" />
  <path
    d="M267.612 269.585C267.415 269.585 267.415 269.388 267.415 269.388C267.415 269.388 267.415 269.388 267.217 269.388V269.19C266.625 268.796 265.836 268.796 265.836 268.796C265.047 270.177 263.863 271.953 262.876 273.729C262.481 274.124 257.745 281.425 254.193 284.78C253.996 284.977 253.601 285.372 253.207 285.569C253.404 284.583 253.404 283.596 253.601 282.609C254.588 279.057 255.575 275.308 256.364 271.558L256.956 269.19C256.956 267.809 256.561 267.02 255.377 266.428C255.18 266.428 254.785 266.23 254.391 266.23C253.996 266.23 253.799 266.033 253.601 265.638C253.207 264.652 252.417 264.257 251.628 263.862C249.457 262.678 247.287 262.876 245.116 264.06C244.721 264.454 244.129 264.652 243.734 265.046C239.393 268.598 237.222 275.111 237.025 275.308C236.63 277.084 236.236 278.86 236.236 280.833C236.433 282.017 236.828 283.004 237.617 283.793C238.998 284.977 240.577 285.372 242.156 285.175C243.537 285.175 244.721 284.385 245.708 283.201C246.497 282.215 247.287 280.833 248.076 279.649L248.668 279.057L248.273 281.623C248.076 283.004 248.076 284.583 248.273 286.161C248.273 286.951 248.471 287.74 249.063 288.332C250.049 289.516 251.431 290.108 253.207 289.713C254.588 289.319 255.969 288.332 257.153 287.345C258.929 285.569 260.508 283.793 261.889 281.82C263.271 280.044 264.455 278.268 265.639 276.492C266.428 274.913 268.007 272.94 268.007 271.164C268.007 270.572 268.007 269.98 267.612 269.585ZM251.233 268.401C249.852 270.572 248.668 272.94 247.286 275.111C246.102 277.084 244.721 279.255 242.945 280.833C242.55 281.031 242.353 281.228 242.156 281.425C241.958 281.425 241.958 281.425 241.564 281.623C241.761 280.833 241.761 280.241 241.761 279.452C242.748 275.505 244.326 271.756 246.695 268.598C247.484 267.612 248.471 266.625 249.655 266.033C250.247 266.625 251.036 267.02 251.628 267.612C251.431 267.809 251.431 268.006 251.233 268.401Z"
    fill="#f0f0f0" />
  <path
    d="M300.37 268.993C300.37 268.796 300.172 268.796 299.975 268.796C298.594 268.598 298.199 269.388 298.199 269.388L278.268 294.844C278.663 293.66 279.255 292.476 279.847 291.095C281.031 288.135 282.61 284.977 283.202 281.82C284.583 275.308 282.018 272.743 277.479 271.361C276.295 271.164 275.111 270.769 273.729 270.572C272.94 270.177 271.756 269.98 271.164 269.191L271.756 267.612C274.716 260.705 276.887 253.996 278.268 246.892C278.86 244.129 279.452 241.366 279.255 238.801C278.86 235.249 277.084 233.867 273.532 234.262C272.348 234.459 271.164 235.051 270.375 235.841C268.401 237.419 267.02 239.393 265.836 241.563C262.087 248.273 260.705 254.982 261.1 262.086C261.1 264.454 261.692 266.822 263.073 268.796C265.047 271.756 268.796 273.137 270.572 273.532C271.559 273.927 272.743 274.124 273.927 274.321C275.308 274.716 275.9 275.505 276.295 276.887C276.689 278.663 276.689 280.439 276.097 282.215C275.703 283.399 275.308 284.78 274.716 286.161C274.716 286.359 272.743 290.503 271.756 294.647V295.042C271.164 298.002 270.967 300.764 272.545 301.751C275.308 303.132 277.676 300.764 279.255 298.988L280.044 298.199L298.791 273.927L300.962 270.769C300.962 270.769 301.554 269.585 300.37 268.993ZM268.993 261.889C268.993 262.284 268.599 262.678 268.401 263.27C266.823 257.548 269.585 244.918 274.321 238.603C274.321 239.393 274.519 239.985 274.519 240.577C274.321 244.918 273.137 249.062 271.953 253.404C271.164 256.166 269.98 258.929 268.993 261.889Z"
    fill="#f0f0f0" />
  <path
    d="M355.427 238.998C354.835 238.011 353.848 237.617 352.861 237.419C351.875 237.222 350.888 237.222 349.901 237.222H334.904C327.8 237.419 320.695 237.814 313.591 238.011H313.394C314.183 234.657 315.17 231.499 315.959 228.145C316.354 227.355 315.762 225.777 312.802 225.382C310.434 224.987 309.842 225.974 309.645 226.369C309.645 226.566 309.447 226.566 309.447 226.763C308.263 230.513 306.882 234.459 305.698 238.406C303.725 238.406 301.949 238.406 300.173 238.603C294.844 239.195 289.516 239.59 284.188 240.379C278.071 241.366 271.954 242.55 265.836 243.537C265.047 243.734 264.652 244.326 265.047 244.918C265.244 245.51 265.639 245.905 266.231 246.102C267.415 247.286 269.191 246.892 270.77 246.694C277.282 245.708 283.794 244.524 290.306 243.734C294.844 243.142 299.186 242.748 303.725 242.353H304.514C304.317 242.748 304.119 242.945 304.119 243.34C301.159 252.22 298.989 261.1 297.805 270.177V270.375C297.805 270.375 296.818 277.084 296.621 280.439C296.621 283.399 296.818 289.713 300.765 291.884C300.962 291.884 301.159 292.081 301.159 292.081C301.751 292.279 302.146 292.476 302.738 292.476H302.935C303.133 292.476 303.527 292.476 303.725 292.476H304.514C305.501 292.476 306.487 292.081 307.277 291.687L309.053 290.503L310.434 289.319C312.21 287.543 313.789 285.372 315.367 283.399C316.749 281.425 317.933 279.255 319.117 277.281C320.103 275.505 321.682 273.532 321.88 271.559C321.88 270.769 321.682 270.177 321.287 269.783C319.709 267.809 318.525 269.388 318.525 269.388L316.946 272.545C314.973 276.097 313.197 279.649 310.631 282.807C310.434 283.004 310.039 283.596 309.447 284.188C308.855 284.78 307.869 285.767 306.685 286.753C304.317 288.332 303.922 286.753 303.922 285.569V283.004C304.119 282.017 304.119 281.031 304.119 280.044C305.303 270.177 307.277 260.31 309.842 250.641C310.631 247.681 311.421 244.721 312.21 241.761H313.394C318.327 241.366 323.261 241.169 328.194 240.971C336.68 240.577 345.165 240.182 353.651 240.379C353.848 240.379 354.243 240.577 354.44 240.379C355.427 240.379 355.821 239.787 355.427 238.998Z"
    fill="#f0f0f0" />
  <path
    d="M341.416 269.585C340.232 268.007 339.245 269.191 339.245 269.191L337.469 271.953L336.877 272.94C336.285 273.927 324.05 291.687 321.287 285.964C321.09 285.57 321.09 285.175 320.893 284.78C320.498 282.61 320.893 280.241 321.485 278.071C322.669 277.479 323.853 277.084 325.037 276.295C328.194 274.124 329.97 270.967 331.154 267.217C331.351 266.033 331.549 263.863 328.983 263.073C328.391 262.876 327.602 262.876 327.01 263.073C323.458 263.468 320.695 265.244 318.525 268.599C316.354 271.756 315.17 275.111 314.578 278.86C314.578 280.044 314.183 284.188 315.565 287.148C316.946 289.319 319.117 290.306 321.287 290.306H321.485C321.485 290.503 321.485 290.503 321.485 290.503L322.274 290.306C323.458 290.306 324.642 289.911 325.629 289.319H325.826C329.97 287.148 333.522 282.807 333.522 282.807C333.72 282.807 333.72 282.61 333.917 282.412L334.114 282.215C334.312 281.82 334.509 281.623 334.706 281.426C335.298 280.834 335.693 280.439 336.088 279.847C336.877 278.86 337.666 277.873 338.456 276.689L340.232 274.124C340.626 273.532 341.021 272.743 341.416 271.953C341.613 271.164 341.81 270.375 341.416 269.585ZM326.418 267.809C326.418 270.177 324.642 273.137 322.669 274.519C323.063 272.545 325.037 268.993 326.418 267.809Z"
    fill="#f0f0f0" />
  <path
    d="M373.779 268.993C373.779 268.796 373.581 268.796 373.384 268.796C372.003 268.598 371.608 269.388 371.608 269.388L351.677 294.844C352.072 293.66 352.664 292.476 353.256 291.095C354.44 288.135 356.019 284.977 356.611 281.82C357.992 275.308 355.427 272.743 350.888 271.361C349.704 271.164 348.52 270.769 347.138 270.572C346.349 270.177 345.165 269.98 344.573 269.191L345.165 267.612C348.125 260.705 350.296 253.996 351.677 246.892C352.269 244.129 352.861 241.366 352.664 238.801C352.269 235.249 350.493 233.867 346.941 234.262C345.757 234.459 344.573 235.051 343.784 235.841C341.81 237.419 340.429 239.393 339.245 241.563C335.496 248.273 334.114 254.982 334.509 262.086C334.509 264.454 335.101 266.822 336.482 268.796C338.456 271.756 342.205 273.137 343.981 273.532C344.968 273.927 346.152 274.124 347.336 274.321C348.717 274.716 349.309 275.505 349.704 276.887C350.099 278.663 350.098 280.439 349.506 282.215C349.112 283.399 348.717 284.78 348.125 286.161C348.125 286.359 346.152 290.503 345.165 294.647V295.042C344.573 298.002 344.376 300.764 345.954 301.751C348.717 303.132 351.085 300.764 352.664 298.988L353.453 298.199L372.2 273.927L374.371 270.769C374.371 270.769 374.963 269.585 373.779 268.993ZM342.402 261.889C342.402 262.284 342.008 262.678 341.81 263.27C340.232 257.548 342.994 244.918 347.73 238.603C347.73 239.393 347.928 239.985 347.928 240.577C347.73 244.918 346.546 249.062 345.362 253.404C344.573 256.166 343.389 258.929 342.402 261.889Z"
    fill="#f0f0f0" />
  <path fill-rule="evenodd" clip-rule="evenodd"
    d="M250 60C224.235 60 199.581 64.9784 176.04 74.9351C153.309 84.5498 133.179 98.1213 115.65 115.65C98.1225 133.177 84.5508 153.307 74.9352 176.04C64.9784 199.581 60 224.234 60 250C60 275.767 64.9784 300.421 74.9353 323.96C84.5516 346.694 98.1233 366.824 115.65 384.35C133.178 401.877 153.308 415.449 176.04 425.065C199.579 435.022 224.232 440 250 440C275.766 440 300.42 435.022 323.96 425.065C346.692 415.451 366.822 401.879 384.35 384.35C401.878 366.823 415.45 346.693 425.065 323.96C435.022 300.421 440 275.767 440 250C440 224.236 435.022 199.583 425.065 176.041C415.452 153.31 401.88 133.179 384.35 115.65C366.823 98.1218 346.693 84.5502 323.96 74.9351C300.42 64.9784 275.766 60 250 60ZM117.67 117.669C134.936 100.404 154.764 87.036 177.153 77.5659C200.338 67.7595 224.62 62.8564 250 62.8564C275.38 62.8564 299.662 67.7595 322.847 77.5659C345.238 87.0362 365.066 100.404 382.331 117.669C399.599 134.937 412.966 154.766 422.434 177.154C432.241 200.34 437.144 224.623 437.144 250C437.144 275.381 432.241 299.663 422.434 322.847C412.963 345.239 399.596 365.067 382.331 382.331C365.065 399.597 345.237 412.965 322.847 422.434C299.661 432.24 275.378 437.144 250 437.144C224.617 437.144 200.335 432.24 177.153 422.434C154.762 412.962 134.934 399.594 117.67 382.331C100.406 365.067 87.0376 345.239 77.566 322.847C67.7596 299.664 62.8563 275.382 62.8563 250C62.8563 224.62 67.7596 200.338 77.566 177.153C87.0367 154.762 100.405 134.934 117.67 117.669Z"
    fill="#f0f0f0" />
  <path fill-rule="evenodd" clip-rule="evenodd"
    d="M120.593 120.592C103.708 137.477 90.6344 156.867 81.373 178.763C71.7842 201.433 66.9899 225.179 66.9899 250C66.9899 274.823 71.7842 298.568 81.373 321.237C90.6353 343.134 103.709 362.525 120.593 379.408C137.477 396.292 156.867 409.365 178.764 418.628C201.431 428.216 225.177 433.011 250 433.011C274.821 433.011 298.566 428.216 321.237 418.628C343.132 409.367 362.523 396.294 379.408 379.408C396.293 362.523 409.367 343.133 418.628 321.237C428.216 298.568 433.011 274.823 433.011 250C433.011 225.181 428.216 201.435 418.628 178.763C409.369 156.87 396.295 137.479 379.408 120.592C362.523 103.707 343.133 90.6337 321.237 81.3727C298.567 71.7841 274.821 66.9897 250 66.9897C225.18 66.9897 201.434 71.7841 178.764 81.3727C156.869 90.6335 137.479 103.707 120.593 120.592ZM71.8458 250C71.8458 225.835 76.5122 202.72 85.8451 180.654C94.8606 159.34 107.588 140.464 124.026 124.026C140.465 107.587 159.341 94.8599 180.655 85.845C202.721 76.5121 225.836 71.8456 250 71.8456C274.165 71.8456 297.28 76.5121 319.346 85.845C340.66 94.8602 359.536 107.587 375.975 124.026C392.416 140.467 405.143 159.344 414.155 180.654C423.489 202.722 428.156 225.838 428.156 250C428.156 274.166 423.489 297.282 414.156 319.346C405.14 340.661 392.413 359.537 375.975 375.975C359.535 392.414 340.659 405.141 319.346 414.156C297.279 423.489 274.164 428.155 250 428.155C225.833 428.155 202.718 423.489 180.655 414.156C159.34 405.139 140.463 392.412 124.026 375.975C107.588 359.537 94.8614 340.661 85.8451 319.346C76.5122 297.282 71.8458 274.166 71.8458 250Z"
    fill="#f0f0f0" />
</svg>
